<?xml version="1.0" encoding="UTF-8"?>
<svg width="24px" height="24px" viewBox="0 0 24 24" version="1.1" xmlns="http://www.w3.org/2000/svg" xmlns:xlink="http://www.w3.org/1999/xlink">
    <title>搜索 绿色</title>
    <defs>
        <linearGradient x1="0.0746922383%" y1="0%" x2="99.9253078%" y2="100%" id="linearGradient-1">
            <stop stop-color="#1AC1FF" offset="0%"></stop>
            <stop stop-color="#00EB62" offset="49.9998101%"></stop>
            <stop stop-color="#00EB63" offset="100%"></stop>
        </linearGradient>
    </defs>
    <g id="页面-1" stroke="none" stroke-width="1" fill="none" fill-rule="evenodd">
        <g id="画板" transform="translate(-949, -62)" fill-rule="nonzero">
            <g id="编组-2" transform="translate(949, 62)">
                <g id="搜索icon" transform="translate(4, 4)">
                    <path d="M7.5,0 C11.6421356,0 15,3.35786438 15,7.5 C15,9.21334207 14.4254833,10.7924986 13.4585872,12.0553321 L15.8518501,14.4495995 C16.0471123,14.6448616 16.0471123,14.9614441 15.8518501,15.1567062 L15.1447433,15.863813 C14.9494812,16.0590752 14.6328987,16.0590752 14.4376366,15.863813 L12.0422047,13.4686155 C10.7815627,14.4294544 9.20741039,15 7.5,15 C3.35786438,15 0,11.6421356 0,7.5 C0,3.35786438 3.35786438,0 7.5,0 Z M7.5,2 C4.46243388,2 2,4.46243388 2,7.5 C2,10.5375661 4.46243388,13 7.5,13 C10.5375661,13 13,10.5375661 13,7.5 C13,4.46243388 10.5375661,2 7.5,2 Z" id="形状结合" fill="url(#linearGradient-1)"></path>
                    <path d="M7.5,-1 C12.1944204,-1 16,2.80557963 16,7.5 C16,9.05796312 15.5788948,10.553763 14.8010966,11.8549181 L14.751,11.934 L16.5589569,13.7424927 C17.1081317,14.2916675 17.1424551,15.1607299 16.6619272,15.7498906 L16.5589569,15.863813 L15.8518501,16.5709198 C15.2660637,17.1567062 14.3163162,17.1567062 13.7305644,16.5709544 L11.919,14.759 L11.8417085,14.8089728 C10.6362816,15.5265867 9.26462651,15.9384462 7.8317122,15.993622 L7.5,16 C2.80557963,16 -1,12.1944204 -1,7.5 C-1,2.80557963 2.80557963,-1 7.5,-1 Z M7.5,0 C3.35786438,0 0,3.35786438 0,7.5 C0,11.6421356 3.35786438,15 7.5,15 C9.20741039,15 10.7815627,14.4294544 12.0422047,13.4686155 L14.4376366,15.863813 C14.6328987,16.0590752 14.9494812,16.0590752 15.1447433,15.863813 L15.8518501,15.1567062 C16.0471123,14.9614441 16.0471123,14.6448616 15.8518501,14.4495995 L13.4585872,12.0553321 C14.4254833,10.7924986 15,9.21334207 15,7.5 C15,3.35786438 11.6421356,0 7.5,0 Z M7.5,2 C10.5375661,2 13,4.46243388 13,7.5 C13,10.5375661 10.5375661,13 7.5,13 C4.46243388,13 2,10.5375661 2,7.5 C2,4.46243388 4.46243388,2 7.5,2 Z M7.5,3 C5.01471863,3 3,5.01471863 3,7.5 C3,9.98528137 5.01471863,12 7.5,12 C9.98528137,12 12,9.98528137 12,7.5 C12,5.01471863 9.98528137,3 7.5,3 Z" id="形状结合" fill-opacity="0.104652672" fill="#000000"></path>
                </g>
            </g>
        </g>
    </g>
</svg>